<?xml version="1.0" encoding="UTF-8" standalone="no"?>
<!-- Created with Inkscape (http://www.inkscape.org/) -->

<svg
   xmlns:dc="http://purl.org/dc/elements/1.1/"
   xmlns:cc="http://creativecommons.org/ns#"
   xmlns:rdf="http://www.w3.org/1999/02/22-rdf-syntax-ns#"
   xmlns:svg="http://www.w3.org/2000/svg"
   xmlns="http://www.w3.org/2000/svg"
   xmlns:sodipodi="http://sodipodi.sourceforge.net/DTD/sodipodi-0.dtd"
   xmlns:inkscape="http://www.inkscape.org/namespaces/inkscape"
   width="210mm"
   height="297mm"
   viewBox="0 0 210 297"
   version="1.1"
   id="svg8"
   sodipodi:docname="portadaProyecto.svg">
  <defs
     id="defs2" />
  <sodipodi:namedview
     id="base"
     pagecolor="#ffffff"
     bordercolor="#666666"
     borderopacity="1.0"
     inkscape:pageopacity="0.0"
     inkscape:pageshadow="2"
     inkscape:zoom="0.35"
     inkscape:cx="-127.14286"
     inkscape:cy="560"
     inkscape:document-units="mm"
     inkscape:current-layer="layer1"
     showgrid="false"
     inkscape:window-width="1366"
     inkscape:window-height="705"
     inkscape:window-x="-8"
     inkscape:window-y="-8"
     inkscape:window-maximized="1" />
  <metadata
     id="metadata5">
    <rdf:RDF>
      <cc:Work
         rdf:about="">
        <dc:format>image/svg+xml</dc:format>
        <dc:type
           rdf:resource="http://purl.org/dc/dcmitype/StillImage" />
      </cc:Work>
    </rdf:RDF>
  </metadata>
  <g
     inkscape:label="Capa 1"
     inkscape:groupmode="layer"
     id="layer1">
    <rect
       style="opacity:1;fill:#ffffff;fill-opacity:1;fill-rule:nonzero;stroke:#000000;stroke-width:0.56499994;stroke-linejoin:round;stroke-miterlimit:4;stroke-dasharray:none;stroke-opacity:1"
       id="rect819"
       width="130.77975"
       height="84.288689"
       x="38.931545"
       y="99.318451"
       ry="5.6696429"
       rx="6.4255939" />
    <path
       style="fill:none;stroke:#000000;stroke-width:0.26458332px;stroke-linecap:butt;stroke-linejoin:miter;stroke-opacity:1"
       d="m 68.224701,183.22916 c 0,-84.666662 0,-84.666662 0,-84.666662 v 0"
       id="path831"
       inkscape:connector-curvature="0" />
    <path
       style="fill:none;stroke:#000000;stroke-width:0.26458332px;stroke-linecap:butt;stroke-linejoin:miter;stroke-opacity:1"
       d="m 87.879464,183.79613 c 0,-84.666667 0,-84.666667 0,-84.666667 v 0"
       id="path831-0"
       inkscape:connector-curvature="0" />
    <path
       style="fill:none;stroke:#000000;stroke-width:0.26458332px;stroke-linecap:butt;stroke-linejoin:miter;stroke-opacity:1"
       d="m 108.47917,183.60714 c 0,-84.666669 0,-84.666669 0,-84.666669 v 0"
       id="path831-0-3"
       inkscape:connector-curvature="0" />
    <path
       style="fill:none;stroke:#000000;stroke-width:0.26458332px;stroke-linecap:butt;stroke-linejoin:miter;stroke-opacity:1"
       d="m 127.85044,183.89062 c 0,-84.666661 0,-84.666661 0,-84.666661 v 0"
       id="path831-5"
       inkscape:connector-curvature="0" />
    <path
       style="fill:none;stroke:#000000;stroke-width:0.26458332px;stroke-linecap:butt;stroke-linejoin:miter;stroke-opacity:1"
       d="m 147.5052,184.45759 c 0,-84.666666 0,-84.666666 0,-84.666666 v 0"
       id="path831-0-1"
       inkscape:connector-curvature="0" />
    <path
       style="fill:none;stroke:#000000;stroke-width:0.26458332px;stroke-linecap:butt;stroke-linejoin:miter;stroke-opacity:1"
       d="M 38.742559,113.11458 H 169.52232 v 0"
       id="path899"
       inkscape:connector-curvature="0" />
    <path
       style="fill:none;stroke:#000000;stroke-width:0.26458332px;stroke-linecap:butt;stroke-linejoin:miter;stroke-opacity:1"
       d="M 39.120537,125.77678 H 169.9003 v 0"
       id="path899-0"
       inkscape:connector-curvature="0" />
    <path
       style="fill:none;stroke:#000000;stroke-width:0.26458332px;stroke-linecap:butt;stroke-linejoin:miter;stroke-opacity:1"
       d="M 39.687502,137.49404 H 170.46726 v 0"
       id="path899-8"
       inkscape:connector-curvature="0" />
    <path
       style="fill:none;stroke:#000000;stroke-width:0.26458332px;stroke-linecap:butt;stroke-linejoin:miter;stroke-opacity:1"
       d="M 39.120536,148.45535 H 169.90029 v 0"
       id="path899-5"
       inkscape:connector-curvature="0" />
    <path
       style="fill:none;stroke:#000000;stroke-width:0.26458332px;stroke-linecap:butt;stroke-linejoin:miter;stroke-opacity:1"
       d="M 38.931549,159.41667 H 169.71131 v 0"
       id="path899-6"
       inkscape:connector-curvature="0" />
    <path
       style="fill:none;stroke:#000000;stroke-width:0.26458332px;stroke-linecap:butt;stroke-linejoin:miter;stroke-opacity:1"
       d="m 38.74256,170.18899 h 130.77976 v 0"
       id="path899-52"
       inkscape:connector-curvature="0" />
    <path
       style="fill:#ff7f2a;stroke:none;stroke-width:0.71428573"
       d="m 258.65562,401.79421 v -25 h 36.42858 36.42857 v 25 25 H 295.0842 258.65562 Z"
       id="path960"
       inkscape:connector-curvature="0"
       transform="scale(0.26458333)" />
    <path
       style="fill:#abc837;stroke:none;stroke-width:0.71428573"
       d="m 332.94134,401.79421 v -25 h 38.21428 38.21429 v 25 25 h -38.21429 -38.21428 z"
       id="path962"
       inkscape:connector-curvature="0"
       transform="scale(0.26458333)" />
    <path
       style="fill:#00ffcc;stroke:none;stroke-width:0.71428573"
       d="m 410.79848,401.79421 v -25 h 35.71429 35.71428 v 25 25 h -35.71428 -35.71429 z"
       id="path964"
       inkscape:connector-curvature="0"
       transform="scale(0.26458333)" />
    <path
       style="fill:#6600ff;stroke:none;stroke-width:0.71428573"
       d="m 484.36991,401.79421 v -25 h 36.07143 36.07143 v 25 25 h -36.07143 -36.07143 z"
       id="path966"
       inkscape:connector-curvature="0"
       transform="scale(0.26458333)" />
    <path
       style="fill:#ff2ad4;stroke:none;stroke-width:0.71428573"
       d="m 558.65562,401.76669 v -25.02752 l 32.33808,0.20609 32.33808,0.20609 4.7748,2.35143 c 2.8664,1.41161 5.79241,3.54028 7.32087,5.32594 4.10212,4.79241 4.65675,7.89185 4.65675,26.02371 v 15.94178 h -40.71429 -40.71429 z"
       id="path968"
       inkscape:connector-curvature="0"
       transform="scale(0.26458333)" />
    <path
       style="fill:#a0a0a0;stroke:none;stroke-width:0.71428573"
       d="m 148.65562,451.43707 v -23.21429 h 54.28572 54.28571 v 23.21429 23.21428 h -54.28571 -54.28572 z"
       id="path970"
       inkscape:connector-curvature="0"
       transform="scale(0.26458333)" />
    <path
       style="fill:#ff80e5;stroke:none;stroke-width:0.71428573"
       d="m 558.65562,401.81453 v -24.97967 l 32.67858,0.42673 32.67857,0.42674 4.1578,2.17946 c 4.98235,2.61168 9.18735,7.16244 10.42006,11.27688 0.54444,1.81716 1.06139,9.46275 1.30685,19.32798 l 0.4061,16.32156 H 599.4796 558.65562 Z"
       id="path972"
       inkscape:connector-curvature="0"
       transform="scale(0.26458333)" />
    <path
       style="fill:#d5e5ff;stroke:none;stroke-width:0.71428573"
       d="m 147.94134,451.43707 v -23.21429 h 54.64286 54.64285 v 23.21429 23.21428 H 202.5842 147.94134 Z"
       id="path974"
       inkscape:connector-curvature="0"
       transform="scale(0.26458333)" />
    <path
       style="fill:#a0a0a0;stroke:none;stroke-width:0.71428573"
       d="m 148.65562,518.22278 v -42.14285 h 54.28572 54.28571 v 21.42857 21.42857 h -53.92857 c -35.47619,0 -53.92857,0.2444 -53.92857,0.71428 0,0.46989 18.45238,0.71429 53.92857,0.71429 h 53.92857 v 20 20 h -54.28571 -54.28572 z"
       id="path976"
       inkscape:connector-curvature="0"
       transform="scale(0.26458333)" />
    <path
       style="fill:#a0a0a0;stroke:none;stroke-width:0.71428573"
       d="m 147.94134,518.22278 v -42.14285 h 54.64286 54.64285 v 21.42857 21.42857 h -53.57143 c -35.23809,0 -53.57143,0.24444 -53.57143,0.71428 0,0.46985 18.33334,0.71429 53.57143,0.71429 h 53.57143 v 20 20 H 202.5842 147.94134 Z"
       id="path978"
       inkscape:connector-curvature="0"
       transform="scale(0.26458333)" />
    <path
       style="fill:#a0a0a0;stroke:none;stroke-width:0.71428573"
       d="m 147.94134,518.22278 v -42.14285 h 54.64286 54.64285 v 21.42857 21.42857 h -52.5 c -34.52381,0 -52.5,0.24457 -52.5,0.71428 0,0.46972 17.97619,0.71429 52.5,0.71429 h 52.5 v 20 20 H 202.5842 147.94134 Z"
       id="path980"
       inkscape:connector-curvature="0"
       transform="scale(0.26458333)" />
  </g>
</svg>
